<svg xmlns="http://www.w3.org/2000/svg" xmlns:xlink="http://www.w3.org/1999/xlink" width="40.246" height="40" viewBox="0 0 40.246 40">
  <defs>
    <linearGradient id="linear-gradient" x1="0.146" y1="0.146" x2="0.854" y2="0.854" gradientUnits="objectBoundingBox">
      <stop offset="0" stop-color="#aa2d90"/>
      <stop offset="1" stop-color="#ef5867"/>
    </linearGradient>
  </defs>
  <g id="logo" transform="translate(-16.572 -17.081)">
    <path id="Path_176" data-name="Path 176" d="M51.963,55.79a2.626,2.626,0,0,0,4.086.553,2.38,2.38,0,0,0,.768-1.782,3.3,3.3,0,0,0-.185-1.044q-.123-.123-17.819-35.084a2.132,2.132,0,0,0-2.089-1.352,2.173,2.173,0,0,0-2.15,1.413L16.818,53.517a2.3,2.3,0,0,0-.246,1.044,2.38,2.38,0,0,0,.768,1.782,2.531,2.531,0,0,0,1.813.738h16.9a2.428,2.428,0,0,0,1.782-.738,2.5,2.5,0,0,0,.737-1.843,2.517,2.517,0,0,0-2.519-2.519H23.331L36.725,25.622Z" transform="translate(0 0)" fill="url(#linear-gradient)"/>
  </g>
</svg>
